<svg xmlns="http://www.w3.org/2000/svg" viewBox="0 0 424.27 156.65"><path d="M69.33,138.65A69.33,69.33,0,1,0,0,69.32a69.32,69.32,0,0,0,69.33,69.33" style="fill:#f39200"/><path d="M74.12,34.67V45.91c17.18,1.14,30.65,8.33,34.68,17.78H74.11V74.87h34.7c-4,9.45-17.51,16.74-34.7,17.87V104c27.73-.93,50.68-15.5,50.69-34.65S101.85,35.61,74.12,34.67" style="fill:#f7a941"/><path d="M64.55,63.69H29.87C33.9,54.24,47.38,47,64.55,45.9V34.66c-27.74.93-50.69,15.5-50.69,34.65S36.8,103,64.53,104V92.74C47.35,91.6,33.87,84.32,29.86,74.87H64.55Z" style="fill:#fff"/><path d="M171,36.33c0-8.93,8.7-16.93,19.41-16.92h36.52v12.2H193.74c-3.12,0-5.64,2.11-5.64,4.72v4.34h35.59V53.24H188.1v4.62c0,2.6,2.52,4.63,5.64,4.63h33.19V74.87H190.41c-10.71,0-19.41-8.09-19.41-17Z" style="fill:#1d1d1b"/><path d="M249.57,19.41h17V57.77c0,2.6,2.52,4.62,5.64,4.62h25.42V74.87H269c-10.71,0-19.41-7.25-19.41-16.17Z" style="fill:#1d1d1b"/><rect x="317.05" y="19.41" width="17.56" height="55.46" style="fill:#1d1d1b"/><polygon points="360.49 74.87 377.6 74.87 377.6 33.28 378.06 34.66 397.93 74.87 424.27 74.87 424.27 19.41 407.17 19.41 407.17 61.01 406.87 59.72 387.3 19.41 360.49 19.41 360.49 74.87" style="fill:#1d1d1b"/><polygon points="171 92.05 179.41 92.05 185.77 110.75 185.84 110.75 191.86 92.05 200.27 92.05 200.27 119.24 194.67 119.24 194.67 99.97 194.6 99.97 187.94 119.24 183.33 119.24 176.68 100.16 176.6 100.16 176.6 119.24 171 119.24 171 92.05" style="fill:#1d1d1b"/><path d="M232,99c6.2,0,10.2,4.12,10.2,10.4s-4,10.37-10.2,10.37-10.16-4.12-10.16-10.37S225.83,99,232,99m0,16.69c3.69,0,4.79-3.16,4.79-6.29s-1.1-6.32-4.79-6.32-4.76,3.16-4.76,6.32,1.11,6.29,4.76,6.29" style="fill:#1d1d1b"/><path d="M270.05,99.55h4v3.62h-4v9.75c0,1.83.46,2.28,2.28,2.28a8,8,0,0,0,1.68-.15v4.23a21.13,21.13,0,0,1-3.16.19c-3.31,0-6.21-.76-6.21-4.68V103.17h-3.27V99.55h3.27v-5.9h5.41Z" style="fill:#1d1d1b"/><path d="M303.65,99c6.2,0,10.2,4.12,10.2,10.4s-4,10.37-10.2,10.37-10.17-4.12-10.17-10.37,4-10.4,10.17-10.4m0,16.69c3.69,0,4.79-3.16,4.79-6.29s-1.1-6.32-4.79-6.32-4.76,3.16-4.76,6.32,1.11,6.29,4.76,6.29" style="fill:#1d1d1b"/><path d="M334.85,99.55H340v3.66h.08A7,7,0,0,1,346.34,99a3.84,3.84,0,0,1,1.18.19v5a10.29,10.29,0,0,0-1.94-.19c-4,0-5.33,2.86-5.33,6.32v8.88h-5.4Z" style="fill:#1d1d1b"/><path d="M370.93,110.71c.14,3.43,1.82,5,4.83,5,2.17,0,3.92-1.33,4.26-2.55h4.75c-1.51,4.64-4.75,6.62-9.21,6.62-6.19,0-10-4.26-10-10.36,0-5.9,4.07-10.39,10-10.39,6.71,0,9.94,5.63,9.56,11.69Zm8.78-3.43c-.49-2.74-1.67-4.19-4.29-4.19a4.25,4.25,0,0,0-4.49,4.19Z" style="fill:#1d1d1b"/><path d="M405.81,99.55H411v2.74h.12a7,7,0,0,1,6-3.27c5.74,0,7.19,3.23,7.19,8.11v12.11h-5.4V108.12c0-3.24-.95-4.84-3.47-4.84-2.92,0-4.18,1.64-4.18,5.64v10.32h-5.41Z" style="fill:#1d1d1b"/><path d="M175.29,136.43h2.92l6,15.71h-2.94L179.84,148h-6.27l-1.47,4.16h-2.84Zm-1,9.46h4.8l-2.36-6.75h-.06Z" style="fill:#706f6f"/><path d="M190.53,136.43h2.86l3.94,12.43h0l4-12.43h2.8l-5.37,15.71h-3.06Z" style="fill:#706f6f"/><path d="M203.89,146.44c0-3.45,2.11-6,5.74-6s5.74,2.53,5.74,6-2.11,6-5.74,6S203.89,149.94,203.89,146.44Zm9,0c0-2-1-4-3.23-4s-3.24,2-3.24,4,1,4,3.24,4S212.86,148.42,212.86,146.44Z" style="fill:#706f6f"/><path d="M217.75,136.43h2.5v2.38h-2.5Zm0,4.34h2.5v11.37h-2.5Z" style="fill:#706f6f"/><path d="M222.06,140.77H224v-3.42h2.51v3.42h2.26v1.87h-2.26v6.07c0,1,.09,1.56,1.21,1.56a4.15,4.15,0,0,0,1.05-.09v1.94a12.63,12.63,0,0,1-1.62.13c-2.64,0-3.08-1-3.15-2.9v-6.71h-1.89Z" style="fill:#706f6f"/><path d="M230.75,136.43h2.51v5.83h0a4,4,0,0,1,3.41-1.8c2.49,0,4,1.3,4,3.87v7.81h-2.51V145c-.07-1.78-.73-2.55-2.22-2.55a2.77,2.77,0,0,0-2.75,3v6.71h-2.51Z" style="fill:#706f6f"/><path d="M260.89,141.43A3.74,3.74,0,0,0,257,138.3c-3.36,0-4.77,3-4.77,6s1.41,6,4.77,6c2.47,0,3.77-1.83,4-4.11h2.68a6.45,6.45,0,0,1-6.69,6.36c-4.68,0-7.52-3.72-7.52-8.23s2.84-8.23,7.52-8.23c3.57,0,6.32,2,6.67,5.37Z" style="fill:#706f6f"/><path d="M265.51,146.44c0-3.45,2.11-6,5.74-6s5.74,2.53,5.74,6-2.11,6-5.74,6S265.51,149.94,265.51,146.44Zm9,0c0-2-1-4-3.24-4s-3.23,2-3.23,4,1,4,3.23,4S274.49,148.42,274.49,146.44Z" style="fill:#706f6f"/><path d="M279.3,140.77h2.38v1.58h.06a3.81,3.81,0,0,1,3.5-1.89,3.21,3.21,0,0,1,3.19,1.89,4.11,4.11,0,0,1,3.57-1.89c2.4,0,3.8,1.08,3.8,3.83v7.85h-2.5V145.5c0-1.83-.11-3.06-2.07-3.06-1.7,0-2.42,1.1-2.42,3v6.67H286.3v-7.3c0-1.59-.49-2.4-2-2.4a2.65,2.65,0,0,0-2.49,2.95v6.75H279.3Z" style="fill:#706f6f"/><path d="M298.73,140.77h2.37v1.54h0a3.73,3.73,0,0,1,3.52-1.85c3.59,0,5.32,2.7,5.32,6,0,3.08-1.56,5.94-4.9,5.94a4.4,4.4,0,0,1-3.81-1.78h0v5.67h-2.51Zm5.61,1.67c-2.11,0-3.19,1.58-3.19,4,0,2.29,1.16,4,3.19,4,2.29,0,3.14-2,3.14-4S306.41,142.44,304.34,142.44Z" style="fill:#706f6f"/><path d="M321.85,149.61c0,.62.13.86.59.86h.27a2.35,2.35,0,0,0,.35,0v1.73a6,6,0,0,1-1.58.29c-1,0-1.74-.35-1.94-1.39a5.84,5.84,0,0,1-3.94,1.39c-2,0-3.89-1.1-3.89-3.32,0-2.84,2.26-3.3,4.38-3.55,1.82-.35,3.41-.11,3.41-1.6,0-1.32-1.37-1.54-2.36-1.54-1.41,0-2.4.57-2.51,1.8h-2.51c.18-2.92,2.65-3.78,5.18-3.78,2.22,0,4.55.9,4.55,3.3Zm-2.51-3.17a8.59,8.59,0,0,1-3.08.68c-1.08.18-2,.58-2,1.9,0,1.14,1.43,1.45,2.3,1.45,1.11,0,2.82-.57,2.82-2.16Z" style="fill:#706f6f"/><path d="M324.78,140.77h2.37v1.67l.05,0a4.1,4.1,0,0,1,3.54-2c2.49,0,4,1.3,4,3.87v7.81h-2.51V145c-.07-1.78-.73-2.55-2.23-2.55a2.77,2.77,0,0,0-2.75,3v6.71h-2.5Z" style="fill:#706f6f"/><path d="M336.37,140.77h2.75l3,8.49h0l2.89-8.49h2.62l-4.43,12c-.81,2-1.38,3.89-4,3.89a11,11,0,0,1-1.74-.13v-2.11a8.07,8.07,0,0,0,1.19.15c1.14,0,1.47-.61,1.76-1.58l.28-.88Z" style="fill:#706f6f"/></svg>